<svg id="icon-linkedin-white" width="22px" height="33px" viewBox="0 0 22 33" version="1.1" xmlns="http://www.w3.org/2000/svg" xmlns:xlink="http://www.w3.org/1999/xlink"><title>Icon-linkedin</title><desc>Created with Sketch.</desc><defs><rect id="path-1" x="0" y="0" width="22" height="33"></rect></defs><g id="Icon-linkedin" stroke="none" stroke-width="1" fill="none" fill-rule="evenodd"><g id="linkedin"><mask id="mask-2" fill="white"><use xlink:href="#path-1"></use></mask><g id="Mask"></g><g mask="url(#mask-2)" stroke="white"><g transform="translate(2.000000, 7.000000)"><path d="M0.102280374,17.9461682 L3.99364486,17.9461682 L3.99364486,5.42725234 L0.102280374,5.42725234 L0.102280374,17.9461682 Z M4.12149533,1.94551402 C4.12149533,3.02046729 3.32781308,3.89119626 2.0222243,3.89119626 C0.793682243,3.89119626 0,3.02046729 0,1.94551402 C0,0.84482243 0.819084112,0 2.07336449,0 C3.32781308,0 4.09609346,0.84482243 4.12149533,1.94551402 L4.12149533,1.94551402 Z" id="Fill-1"></path><path d="M6.32254206,9.42086355 C6.32254206,7.85940561 6.27140187,6.55398505 6.22042991,5.42721869 L9.59938318,5.42721869 L9.7788785,7.16817196 L9.85558879,7.16817196 C10.3674953,6.3487514 11.6221121,5.14544299 13.7213832,5.14544299 C16.2815888,5.14544299 18.2013645,6.86099439 18.2013645,10.5474617 L18.2013645,17.9461346 L14.3101682,17.9461346 L14.3101682,11.008228 C14.3101682,9.39546168 13.746785,8.29477009 12.3387477,8.29477009 C11.2634579,8.29477009 10.6237009,9.03714393 10.3420935,9.75377944 C10.2396449,10.0096486 10.2137383,10.3681346 10.2137383,10.7267888 L10.2137383,17.9461346 L6.32254206,17.9461346 L6.32254206,9.42086355 Z" id="Fill-3"></path></g></g></g></g></svg>