<svg width="291px" height="490px" viewBox="0 0 291 490" version="1.1" xmlns="http://www.w3.org/2000/svg" xmlns:xlink="http://www.w3.org/1999/xlink">
    <g id="icon-bcorp" stroke="none" stroke-width="1" fill="none" fill-rule="evenodd">
      <g transform="translate(-117.000000, -103.000000)" fill="#FFFFFF">
        <g transform="translate(117.000000, 103.000000)">
          <path d="M106.6593,287.7588 L161.7633,287.7588 C180.7353,287.7588 192.7803,276.1908 192.7803,258.1368 C192.7803,236.6088 175.4193,230.5908 156.8913,230.5908 L106.6593,230.5908 L106.6593,287.7588 Z M106.6593,212.0748 L150.6573,212.0748 C175.6443,212.0748 185.8413,203.0508 185.8413,185.6868 C185.8413,162.7698 169.6443,159.5358 150.6573,159.5358 L106.6593,159.5358 L106.6593,212.0748 Z M84.6813,141.0168 L144.6243,141.0168 C159.2163,141.0168 178.4253,141.0168 188.3763,147.0348 C199.2573,153.5148 207.8133,165.3198 207.8133,181.5258 C207.8133,199.1148 198.5673,212.3088 183.2853,218.5518 L183.2853,219.0168 C203.6643,223.1808 214.7643,238.4598 214.7643,258.8328 C214.7643,283.1268 197.4003,306.2778 164.5383,306.2778 L84.6813,306.2778 L84.6813,141.0168 Z" id="Fill-1"></path>
          <path d="M145.2666,78.8529 C65.3106,78.8529 0.4806,143.6799 0.4806,223.6479 C0.4806,303.6069 65.3106,368.4399 145.2666,368.4399 C225.2496,368.4399 290.0796,303.6069 290.0796,223.6479 C290.0796,143.6799 225.2496,78.8529 145.2666,78.8529 M270.9846,223.7169 C270.9846,293.1429 214.7106,349.4259 145.2666,349.4259 C75.8466,349.4259 19.5726,293.1429 19.5726,223.7169 C19.5726,154.2969 75.8466,98.0259 145.2666,98.0259 C214.7106,98.0259 270.9846,154.2969 270.9846,223.7169" id="Fill-3"></path>
          <polygon id="Fill-6" points="0.78 417.978 289.779 417.978 289.779 398.982 0.78 398.982"></polygon>
          <path d="M272.8956,375.1893 C273.3606,374.1483 273.9876,373.2663 274.7706,372.4773 C275.5596,371.7003 276.4896,371.1243 277.5456,370.6713 C278.5896,370.2273 279.7236,370.0233 280.8816,370.0233 C282.0846,370.0233 283.2006,370.2273 284.2656,370.6713 C285.2976,371.1243 286.2066,371.7003 286.9776,372.4773 C287.7606,373.2663 288.4086,374.1483 288.8526,375.1893 C289.3326,376.2423 289.5486,377.3823 289.5486,378.6123 C289.5486,379.8543 289.3326,380.9913 288.8526,382.0293 C288.4086,383.1003 287.7606,384.0003 286.9776,384.7773 C286.2066,385.5753 285.2976,386.1573 284.2656,386.6043 C283.2006,387.0303 282.0846,387.2433 280.8816,387.2433 C279.7236,387.2433 278.5896,387.0303 277.5456,386.6043 C276.4896,386.1573 275.5596,385.5753 274.7706,384.7773 C273.9876,384.0003 273.3606,383.1003 272.8956,382.0293 C272.4156,380.9913 272.2206,379.8543 272.2206,378.6123 C272.2206,377.3823 272.4156,376.2423 272.8956,375.1893 L272.8956,375.1893 Z M274.3296,381.5193 C274.6656,382.4343 275.1636,383.2203 275.8146,383.8803 C276.4416,384.5373 277.2006,385.0593 278.0796,385.4403 C278.9316,385.8123 279.8886,385.9833 280.8816,385.9833 C281.8986,385.9833 282.8376,385.8123 283.6866,385.4403 C284.5476,385.0593 285.2976,384.5373 285.9516,383.8803 C286.5696,383.2203 287.0796,382.4343 287.4306,381.5193 C287.8026,380.6313 287.9856,379.6473 287.9856,378.6123 C287.9856,377.5533 287.8026,376.6113 287.4306,375.7143 C287.0796,374.8113 286.5696,374.0433 285.9516,373.3833 C285.2976,372.7383 284.5476,372.2253 283.6866,371.8443 C282.8376,371.4813 281.8986,371.2773 280.8816,371.2773 C279.8886,371.2773 278.9316,371.4813 278.0796,371.8443 C277.2006,372.2253 276.4416,372.7383 275.8146,373.3833 C275.1636,374.0433 274.6656,374.8113 274.3296,375.7143 C273.9576,376.6113 273.7806,377.5533 273.7806,378.6123 C273.7806,379.6473 273.9576,380.6313 274.3296,381.5193 L274.3296,381.5193 Z M281.4336,373.5873 C282.6366,373.5873 283.5126,373.8273 284.0916,374.2923 C284.6736,374.7843 284.9706,375.4983 284.9706,376.4673 C284.9706,377.3823 284.7036,378.0303 284.2086,378.4743 C283.6866,378.8883 283.0656,379.1403 282.2946,379.2273 L285.1836,383.6613 L283.5126,383.6613 L280.7556,379.3203 L279.0996,379.3203 L279.0996,383.6613 L277.5126,383.6613 L277.5126,373.5873 L281.4336,373.5873 Z M280.7376,378.0663 C281.0946,378.0663 281.4336,378.0483 281.7486,378.0303 C282.0426,378.0153 282.3426,377.9493 282.5826,377.8413 C282.8376,377.7153 283.0356,377.5533 283.1766,377.3403 C283.3266,377.1063 283.3836,376.8123 283.3836,376.3983 C283.3836,376.0653 283.3266,375.7833 283.1916,375.6033 C283.0656,375.3873 282.8886,375.2463 282.6816,375.1443 C282.4686,375.0213 282.2496,374.9523 281.9706,374.9013 C281.7036,374.8863 281.4486,374.8593 281.1756,374.8593 L279.0996,374.8593 L279.0996,378.0663 L280.7376,378.0663 Z" id="Fill-8"></path>
          <path d="M35.8047,15.1866 C35.1177,14.0886 34.2657,13.1256 33.2427,12.2976 C32.2137,11.4666 31.0587,10.8216 29.7627,10.3566 C28.4697,9.8946 27.1167,9.6606 25.7007,9.6606 C23.1177,9.6606 20.9187,10.1616 19.1157,11.1606 C17.3097,12.1626 15.8457,13.5036 14.7237,15.1866 C13.6017,16.8696 12.7827,18.7866 12.2697,20.9346 C11.7537,23.0796 11.5017,25.3026 11.5017,27.5946 C11.5017,29.7876 11.7537,31.9236 12.2697,33.9966 C12.7827,36.0726 13.6017,37.9386 14.7237,39.5976 C15.8457,41.2566 17.3097,42.5856 19.1157,43.5876 C20.9187,44.5866 23.1177,45.0846 25.7007,45.0846 C29.2167,45.0846 31.9617,44.0136 33.9357,41.8686 C35.9097,39.7206 37.1187,36.8916 37.5567,33.3786 L48.6837,33.3786 C48.3897,36.6456 47.6337,39.5976 46.4157,42.2316 C45.1947,44.8686 43.5837,47.1156 41.5857,48.9636 C39.5847,50.8206 37.2417,52.2366 34.5567,53.2116 C31.8717,54.1866 28.9227,54.6756 25.7007,54.6756 C21.6987,54.6756 18.1017,53.9796 14.9037,52.5876 C11.7117,51.1986 9.0087,49.2846 6.8187,46.8426 C4.6227,44.4036 2.9367,41.5386 1.7667,38.2446 C0.5937,34.9506 0.0087,31.4016 0.0087,27.5946 C0.0087,23.6886 0.5937,20.0646 1.7667,16.7226 C2.9367,13.3806 4.6227,10.4646 6.8187,7.9776 C9.0087,5.4876 11.7117,3.5376 14.9037,2.1216 C18.1017,0.7086 21.6987,0.0006 25.7007,0.0006 C28.5807,0.0006 31.3017,0.4176 33.8637,1.2426 C36.4227,2.0736 38.7177,3.2826 40.7427,4.8696 C42.7647,6.4536 44.4387,8.4186 45.7527,10.7586 C47.0757,13.1016 47.9037,15.7866 48.2427,18.8106 L37.1187,18.8106 C36.9237,17.4936 36.4857,16.2846 35.8047,15.1866" id="Fill-9"></path>
          <path d="M75.417,24.519 C74.172,23.154 72.276,22.47 69.741,22.47 C68.085,22.47 66.705,22.752 65.607,23.313 C64.509,23.874 63.63,24.567 62.973,25.395 C62.313,26.229 61.851,27.105 61.581,28.035 C61.314,28.962 61.152,29.787 61.104,30.522 L78.015,30.522 C77.526,27.885 76.659,25.884 75.417,24.519 M63.669,44.43 C65.229,45.939 67.476,46.695 70.401,46.695 C72.501,46.695 74.307,46.17 75.819,45.123 C77.331,44.076 78.255,42.963 78.603,41.79 L87.75,41.79 C86.283,46.332 84.039,49.578 81.015,51.528 C77.988,53.478 74.331,54.456 70.035,54.456 C67.059,54.456 64.374,53.979 61.983,53.028 C59.595,52.077 57.57,50.724 55.908,48.963 C54.249,47.208 52.968,45.111 52.065,42.672 C51.162,40.233 50.712,37.548 50.712,34.62 C50.712,31.791 51.177,29.154 52.104,26.715 C53.028,24.273 54.351,22.164 56.055,20.385 C57.765,18.603 59.802,17.202 62.169,16.176 C64.533,15.15 67.155,14.64 70.035,14.64 C73.254,14.64 76.062,15.261 78.453,16.506 C80.844,17.751 82.809,19.419 84.345,21.519 C85.881,23.619 86.991,26.01 87.675,28.692 C88.353,31.377 88.602,34.182 88.404,37.11 L61.104,37.11 C61.251,40.476 62.106,42.915 63.669,44.43" id="Fill-10"></path>
          <path d="M102.9708,15.6642 L102.9708,22.6902 L103.1178,22.6902 C103.6068,21.5202 104.2668,20.4342 105.0948,19.4322 C105.9228,18.4332 106.8768,17.5782 107.9478,16.8702 C109.0218,16.1652 110.1678,15.6132 111.3918,15.2232 C112.6098,14.8332 113.8788,14.6412 115.1958,14.6412 C115.8798,14.6412 116.6328,14.7612 117.4668,15.0042 L117.4668,24.6642 C116.9748,24.5682 116.3928,24.4842 115.7058,24.4092 C115.0248,24.3372 114.3648,24.2982 113.7318,24.2982 C111.8268,24.2982 110.2188,24.6192 108.9018,25.2522 C107.5818,25.8852 106.5228,26.7522 105.7158,27.8502 C104.9118,28.9482 104.3358,30.2262 103.9968,31.6932 C103.6578,33.1572 103.4868,34.7412 103.4868,36.4482 L103.4868,53.5032 L93.0888,53.5032 L93.0888,15.6642 L102.9708,15.6642 Z" id="Fill-11"></path>
          <path d="M145.2813,15.6642 L145.2813,22.6152 L137.6643,22.6152 L137.6643,41.3532 C137.6643,43.1112 137.9613,44.2812 138.5463,44.8662 C139.1313,45.4542 140.3043,45.7452 142.0563,45.7452 C142.6413,45.7452 143.2053,45.7212 143.7393,45.6732 C144.2763,45.6252 144.7893,45.5502 145.2813,45.4542 L145.2813,53.5032 C144.4023,53.6532 143.4213,53.7462 142.3473,53.7942 C141.2793,53.8452 140.2293,53.8722 139.2033,53.8722 C137.5923,53.8722 136.0653,53.7612 134.6253,53.5392 C133.1883,53.3232 131.9223,52.8972 130.8243,52.2612 C129.7233,51.6252 128.8563,50.7252 128.2203,49.5522 C127.5873,48.3792 127.2753,46.8432 127.2753,44.9442 L127.2753,22.6152 L120.9783,22.6152 L120.9783,15.6642 L127.2753,15.6642 L127.2753,4.3182 L137.6643,4.3182 L137.6643,15.6642 L145.2813,15.6642 Z" id="Fill-12"></path>
          <path d="M151.335,53.505 L161.73,53.505 L161.73,15.666 L151.335,15.666 L151.335,53.505 Z M151.335,9.807 L161.73,9.807 L161.73,1.242 L151.335,1.242 L151.335,9.807 Z" id="Fill-13"></path>
          <path d="M165.8475,22.6146 L165.8475,15.6636 L172.0665,15.6636 L172.0665,12.7356 C172.0665,9.3696 173.1165,6.6126 175.2165,4.4676 C177.3105,2.3166 180.4875,1.2426 184.7325,1.2426 C185.6565,1.2426 186.5865,1.2816 187.5165,1.3536 C188.4345,1.4286 189.3405,1.4886 190.2165,1.5366 L190.2165,9.2976 C188.9985,9.1476 187.7295,9.0756 186.4125,9.0756 C184.9995,9.0756 183.9855,9.4056 183.3795,10.0626 C182.7705,10.7226 182.4645,11.8326 182.4645,13.3956 L182.4645,15.6636 L189.6345,15.6636 L189.6345,22.6146 L182.4645,22.6146 L182.4645,53.5026 L172.0665,53.5026 L172.0665,22.6146 L165.8475,22.6146 Z" id="Fill-14"></path>
          <path d="M196.68,53.505 L207.075,53.505 L207.075,15.666 L196.68,15.666 L196.68,53.505 Z M196.68,9.807 L207.075,9.807 L207.075,1.242 L196.68,1.242 L196.68,9.807 Z" id="Fill-15"></path>
          <path d="M235.2138,24.519 C233.9718,23.154 232.0758,22.47 229.5408,22.47 C227.8818,22.47 226.5078,22.752 225.4068,23.313 C224.3058,23.874 223.4298,24.567 222.7728,25.395 C222.1128,26.229 221.6508,27.105 221.3808,28.035 C221.1138,28.962 220.9548,29.787 220.9068,30.522 L237.8088,30.522 C237.3288,27.885 236.4618,25.884 235.2138,24.519 M223.4658,44.43 C225.0288,45.939 227.2758,46.695 230.1978,46.695 C232.2978,46.695 234.1038,46.17 235.6188,45.123 C237.1308,44.076 238.0578,42.963 238.3998,41.79 L247.5438,41.79 C246.0858,46.332 243.8388,49.578 240.8178,51.528 C237.7818,53.478 234.1308,54.456 229.8348,54.456 C226.8558,54.456 224.1708,53.979 221.7828,53.028 C219.3948,52.077 217.3668,50.724 215.7078,48.963 C214.0488,47.208 212.7708,45.111 211.8648,42.672 C210.9648,40.233 210.5118,37.548 210.5118,34.62 C210.5118,31.791 210.9798,29.154 211.9008,26.715 C212.8308,24.273 214.1448,22.164 215.8578,20.385 C217.5618,18.603 219.5988,17.202 221.9658,16.176 C224.3328,15.15 226.9548,14.64 229.8348,14.64 C233.0538,14.64 235.8648,15.261 238.2558,16.506 C240.6468,17.751 242.6088,19.419 244.1478,21.519 C245.6808,23.619 246.7908,26.01 247.4718,28.692 C248.1558,31.377 248.4018,34.182 248.2068,37.11 L220.9068,37.11 C221.0508,40.476 221.9058,42.915 223.4658,44.43" id="Fill-16"></path>
          <path d="M279.3117,29.9712 C279.0207,28.5342 278.5197,27.2652 277.8147,26.1642 C277.1097,25.0692 276.1917,24.1782 275.0697,23.4942 C273.9477,22.8102 272.5317,22.4712 270.8247,22.4712 C269.1207,22.4712 267.6747,22.8102 266.5047,23.4942 C265.3347,24.1782 264.3927,25.0782 263.6847,26.2032 C262.9797,27.3282 262.4697,28.6062 262.1517,30.0432 C261.8307,31.4862 261.6777,32.9862 261.6777,34.5462 C261.6777,36.0102 261.8457,37.4742 262.1847,38.9382 C262.5267,40.4052 263.0787,41.7072 263.8347,42.8532 C264.5937,44.0052 265.5387,44.9292 266.6907,45.6342 C267.8367,46.3452 269.2167,46.6962 270.8247,46.6962 C272.5317,46.6962 273.9597,46.3572 275.1087,45.6732 C276.2517,44.9892 277.1697,44.0742 277.8537,42.9282 C278.5317,41.7822 279.0207,40.4742 279.3117,39.0132 C279.6087,37.5462 279.7527,36.0342 279.7527,34.4742 C279.7527,32.9142 279.6087,31.4112 279.3117,29.9712 L279.3117,29.9712 Z M279.7527,48.6732 C278.5317,50.7222 276.9357,52.2012 274.9587,53.1012 C272.9847,54.0042 270.7527,54.4542 268.2627,54.4542 C265.4277,54.4542 262.9437,53.9082 260.7987,52.8072 C258.6507,51.7122 256.8777,50.2242 255.4917,48.3462 C254.0967,46.4682 253.0467,44.3082 252.3417,41.8662 C251.6337,39.4272 251.2827,36.8922 251.2827,34.2552 C251.2827,31.7202 251.6337,29.2662 252.3417,26.8992 C253.0467,24.5322 254.0967,22.4472 255.4917,20.6382 C256.8777,18.8382 258.6237,17.3832 260.7237,16.2852 C262.8207,15.1872 265.2597,14.6412 268.0437,14.6412 C270.2877,14.6412 272.4237,15.1122 274.4427,16.0662 C276.4737,17.0172 278.0697,18.4182 279.2427,20.2752 L279.3867,20.2752 L279.3867,1.2432 L289.7787,1.2432 L289.7787,53.5032 L279.8997,53.5032 L279.8997,48.6732 L279.7527,48.6732 Z" id="Fill-17"></path>
          <path d="M26.1339,455.2755 C25.6089,451.6155 22.1049,448.8345 18.0849,448.8345 C10.8219,448.8345 8.0859,455.0205 8.0859,461.4645 C8.0859,467.5905 10.8219,473.7795 18.0849,473.7795 C23.0319,473.7795 25.8279,470.3775 26.4339,465.5295 L34.2819,465.5295 C33.4509,474.7095 27.1089,480.5835 18.0849,480.5835 C6.6969,480.5835 0.0009,472.0785 0.0009,461.4645 C0.0009,450.5355 6.6969,442.0275 18.0849,442.0275 C26.1819,442.0275 32.9799,446.7735 33.9639,455.2755 L26.1339,455.2755 Z" id="Fill-18"></path>
          <path d="M51.1737,474.9132 C56.1717,474.9132 57.6627,470.6322 57.6627,466.4112 C57.6627,462.1332 56.1717,457.8552 51.1737,457.8552 C46.2297,457.8552 44.7237,462.1332 44.7237,466.4112 C44.7237,470.6322 46.2297,474.9132 51.1737,474.9132 M51.1737,452.3442 C59.5767,452.3442 64.9857,457.9002 64.9857,466.4112 C64.9857,474.8622 59.5767,480.4302 51.1737,480.4302 C42.8217,480.4302 37.4127,474.8622 37.4127,466.4112 C37.4127,457.9002 42.8217,452.3442 51.1737,452.3442" id="Fill-19"></path>
          <path d="M69.5019,453.0138 L76.4499,453.0138 L76.4499,457.9578 L76.5609,457.9578 C77.8929,454.6128 81.5049,452.2968 85.0689,452.2968 C85.5819,452.2968 86.1939,452.3928 86.6709,452.5488 L86.6709,459.3498 C85.9869,459.1998 84.9129,459.0978 84.0399,459.0978 C78.6729,459.0978 76.8129,462.9648 76.8129,467.6508 L76.8129,479.6628 L69.5019,479.6628 L69.5019,453.0138 Z" id="Fill-20"></path>
          <path d="M109.3134,466.464 C109.3134,462.228 107.6124,457.857 102.9234,457.857 C98.1294,457.857 96.5874,462.135 96.5874,466.464 C96.5874,470.787 98.2374,474.912 102.9774,474.912 C107.7744,474.912 109.3134,470.787 109.3134,466.464 L109.3134,466.464 Z M89.5254,453.06 L96.4884,453.06 L96.4884,456.459 L96.5874,456.459 C98.3364,453.63 101.2224,452.343 104.5164,452.343 C112.8744,452.343 116.6274,459.09 116.6274,466.662 C116.6274,473.778 112.7214,480.429 104.9334,480.429 C101.7414,480.429 98.7024,479.034 96.9504,476.406 L96.8424,476.406 L96.8424,489.087 L89.5254,489.087 L89.5254,453.06 Z" id="Fill-21"></path>
          <path d="M132.6924,474.9132 C137.6934,474.9132 139.1904,470.6322 139.1904,466.4112 C139.1904,462.1332 137.6934,457.8552 132.6924,457.8552 C127.7544,457.8552 126.2544,462.1332 126.2544,466.4112 C126.2544,470.6322 127.7544,474.9132 132.6924,474.9132 M132.6924,452.3442 C141.0984,452.3442 146.5164,457.9002 146.5164,466.4112 C146.5164,474.8622 141.0984,480.4302 132.6924,480.4302 C124.3494,480.4302 118.9374,474.8622 118.9374,466.4112 C118.9374,457.9002 124.3494,452.3442 132.6924,452.3442" id="Fill-22"></path>
          <path d="M151.0323,453.0138 L157.9893,453.0138 L157.9893,457.9578 L158.1003,457.9578 C159.4323,454.6128 163.0413,452.2968 166.5963,452.2968 C167.1093,452.2968 167.7333,452.3928 168.1983,452.5488 L168.1983,459.3498 C167.5263,459.1998 166.4433,459.0978 165.5703,459.0978 C160.2093,459.0978 158.3493,462.9648 158.3493,467.6508 L158.3493,479.6628 L151.0323,479.6628 L151.0323,453.0138 Z" id="Fill-23"></path>
          <path d="M187.2606,466.6632 C186.0156,467.7522 183.4446,467.7942 181.1736,468.2142 C178.9056,468.6672 176.8416,469.4532 176.8416,472.1292 C176.8416,474.8622 178.9566,475.5252 181.3326,475.5252 C187.0476,475.5252 187.2606,470.9982 187.2606,469.3962 L187.2606,466.6632 Z M170.3436,461.2542 C170.7636,454.3962 176.8926,452.3442 182.8716,452.3442 C188.1786,452.3442 194.5746,453.5232 194.5746,459.9102 L194.5746,473.7792 C194.5746,476.2062 194.8266,478.6212 195.5106,479.7102 L188.0766,479.7102 C187.8276,478.8762 187.6116,478.0062 187.5576,477.1242 C185.2446,479.5542 181.8456,480.4302 178.5966,480.4302 C173.5446,480.4302 169.5276,477.9042 169.5276,472.4352 C169.5276,466.4112 174.0726,464.9712 178.5966,464.3502 C183.0816,463.6752 187.2606,463.8342 187.2606,460.8402 C187.2606,457.7022 185.0826,457.2342 182.5146,457.2342 C179.7276,457.2342 177.9306,458.3652 177.6666,461.2542 L170.3436,461.2542 Z" id="Fill-24"></path>
          <path d="M209.3565,453.0606 L214.7205,453.0606 L214.7205,457.9566 L209.3565,457.9566 L209.3565,471.1416 C209.3565,473.6226 209.9805,474.2436 212.4465,474.2436 C213.2235,474.2436 213.9465,474.1896 214.7205,474.0396 L214.7205,479.7606 C213.4755,479.9676 211.8765,480.0156 210.4335,480.0156 C205.9635,480.0156 202.0425,478.9806 202.0425,473.6736 L202.0425,457.9566 L197.6055,457.9566 L197.6055,453.0606 L202.0425,453.0606 L202.0425,445.0686 L209.3565,445.0686 L209.3565,453.0606 Z" id="Fill-25"></path>
          <path d="M220.239,479.709 L227.559,479.709 L227.559,453.06 L220.239,453.06 L220.239,479.709 Z M220.242,448.935 L227.562,448.935 L227.562,442.902 L220.242,442.902 L220.242,448.935 Z" id="Fill-26"></path>
          <path d="M246.2295,474.9132 C251.2395,474.9132 252.7275,470.6322 252.7275,466.4112 C252.7275,462.1332 251.2395,457.8552 246.2295,457.8552 C241.2855,457.8552 239.7885,462.1332 239.7885,466.4112 C239.7885,470.6322 241.2855,474.9132 246.2295,474.9132 M246.2295,452.3442 C254.6355,452.3442 260.0565,457.9002 260.0565,466.4112 C260.0565,474.8622 254.6355,480.4302 246.2295,480.4302 C237.8865,480.4302 232.4805,474.8622 232.4805,466.4112 C232.4805,457.9002 237.8865,452.3442 246.2295,452.3442" id="Fill-27"></path>
          <path d="M264.7833,453.0606 L271.7433,453.0606 L271.7433,456.7716 L271.8963,456.7716 C273.7533,453.7806 276.9483,452.3436 280.0443,452.3436 C287.8263,452.3436 289.7793,456.7206 289.7793,463.3176 L289.7793,479.7096 L282.4653,479.7096 L282.4653,464.6556 C282.4653,460.2756 281.1723,458.1066 277.7763,458.1066 C273.8013,458.1066 272.1003,460.3266 272.1003,465.7446 L272.1003,479.7096 L264.7833,479.7096 L264.7833,453.0606 Z" id="Fill-28"></path>
        </g>
      </g>
    </g>
  </svg>