<svg id="icon-pinterest-white" version="1.1" viewBox="0 0 25 30" xmlns="http://www.w3.org/2000/svg"><g fill="none" fill-rule="evenodd"><g transform="translate(-151 -70)"><g transform="translate(151 70)"><path d="m7.8361 23.627c0.066748-1.4282 0.21857-1.757 0.41619-2.6025 0.21464-0.90306 1.4318-6.0636 1.4318-6.0636s-0.35468-0.71067-0.35468-1.7616c0-1.6491 0.95672-2.8806 2.1464-2.8806 1.0117 0 1.5012 0.7604 1.5012 1.6713 0 1.0169-0.64916 2.539-0.9829 3.9486-0.27877 1.1818 0.59157 2.1438 1.7564 2.1438 2.1085 0 3.5285-2.7079 3.5285-5.917 0-2.4383-1.6425-4.264-4.6305-4.264-3.3754 0-5.4786 2.5168-5.4786 5.3281 0 0.97112 0.28532 1.6543 0.73292 2.1831 0.20679 0.24474 0.23427 0.34159 0.15967 0.62167-0.052351 0.20286-0.17538 0.69758-0.22642 0.89259-0.074601 0.28139-0.30233 0.38347-0.55623 0.27877-1.5561-0.63476-2.2799-2.3375-2.2799-4.2522 0-3.1607 2.666-6.9536 7.9535-6.9536 4.2496 0 7.0465 3.077 7.0465 6.3764 0 4.3661-2.4265 7.6276-6.006 7.6276-1.2002 0-2.3309-0.64916-2.7183-1.386 0 0-0.64654 2.5639-0.78265 3.0586-0.23558 0.85726-0.47068 1.6236-0.93695 2.5028-0.46628 0.87919-1.7866 0.87613-1.7199-0.55209z" stroke="white"></path></g></g></g></svg>