<svg id="icon-twitter-white" version="1.1" viewBox="0 0 25 30" xmlns="http://www.w3.org/2000/svg">
    <g id="a" fill="none" fill-rule="evenodd">
      <g transform="translate(-113 -70)">
        <g transform="translate(113 70)">
          <path d="m23.101 6.4347c-1.0685 0.44381-2.3259 0.73285-3.3135 0.92532-0.79006-0.8373-1.9172-1.36-3.1632-1.36-2.3938 0-4.3336 1.9286-4.3336 4.3086 0 0.33805 0.039306 0.66535 0.11202 0.98092-3.6015-0.17977-6.7941-1.8954-8.9324-4.5021-0.37243 0.63799-0.58665 1.3756-0.58665 2.166 0 1.4939 0.7655 2.8148 1.927 3.5857-0.7085-0.020517-1.3777-0.21592-1.9614-0.53834v0.053736c0 2.0879 1.4946 3.8299 3.4747 4.2246-0.3626 0.099656-0.74682 0.15241-1.1419 0.15241-0.27809 0-0.55029-0.026379-0.81365-0.078161 0.55127 1.7117 2.1501 2.9565 4.0466 2.9946-1.4828 1.1539-3.3499 1.8427-5.3821 1.8427-0.34885 0-0.69376-0.020517-1.0328-0.060575 1.9172 1.2232 4.195 1.9345 6.6438 1.9345 7.9704 0 12.329-6.5636 12.329-12.258 0-0.18563-0.0039306-0.37224-0.011792-0.55788 0.84509-0.60673 2.1402-2.1688 2.1402-3.8144z" stroke="white" stroke-linecap="round" stroke-linejoin="round"></path>
        </g>
      </g>
    </g>
  </svg>